PathFileType	4	(X/Y/Z)	C:\Users\Basilio\Documents\Thesis Gigler\squatting_fais\c3dfiles\077\SJ_pre2\markers_experimental.trc
DataRate	CameraRate	NumFrames	NumMarkers	Units	OrigDataRate	OrigDataStartFrame	OrigNumFrames
200.000000	200.000000	4	60	mm	200.000000	315	1263
Frame#	Time	FHD			LBHD			RBHD			C7			T10			CLAV			LSHO			LUUPA			LMUPA			LDUPA			LLEP			LMEP			LRAD			LUL			LRFIN			RSHO			RUPA1			RMUPA			RDUPA			RLEP			RMEP			RRAD			RUL			RUFIN			LASI			RASI			USACR			LSACR			RSACR			LTHI1			LTHI2			LTHI3			LTHI4			LLFC			LMFC			LTIB1			LTIB2			LTIB3			LTIB4			LLMAL			LHEE			LMT1			LMT2			LMT5			RTHI			RTHI2			RTHI3			RTHI4			RLFC			RMFC			RTIB1			RTIB2			RTIB3			RTIB4			RLMAL			RMMAL			RHEE			RMT1			RMT2			RMT5			
		X1	Y1	Z1	X2	Y2	Z2	X3	Y3	Z3	X4	Y4	Z4	X5	Y5	Z5	X6	Y6	Z6	X7	Y7	Z7	X8	Y8	Z8	X9	Y9	Z9	X10	Y10	Z10	X11	Y11	Z11	X12	Y12	Z12	X13	Y13	Z13	X14	Y14	Z14	X15	Y15	Z15	X16	Y16	Z16	X17	Y17	Z17	X18	Y18	Z18	X19	Y19	Z19	X20	Y20	Z20	X21	Y21	Z21	X22	Y22	Z22	X23	Y23	Z23	X24	Y24	Z24	X25	Y25	Z25	X26	Y26	Z26	X27	Y27	Z27	X28	Y28	Z28	X29	Y29	Z29	X30	Y30	Z30	X31	Y31	Z31	X32	Y32	Z32	X33	Y33	Z33	X34	Y34	Z34	X35	Y35	Z35	X36	Y36	Z36	X37	Y37	Z37	X38	Y38	Z38	X39	Y39	Z39	X40	Y40	Z40	X41	Y41	Z41	X42	Y42	Z42	X43	Y43	Z43	X44	Y44	Z44	X45	Y45	Z45	X46	Y46	Z46	X47	Y47	Z47	X48	Y48	Z48	X49	Y49	Z49	X50	Y50	Z50	X51	Y51	Z51	X52	Y52	Z52	X53	Y53	Z53	X54	Y54	Z54	X55	Y55	Z55	X56	Y56	Z56	X57	Y57	Z57	X58	Y58	Z58	X59	Y59	Z59	X60	Y60	Z60	

316	1.575	74.39157867431642	1272.413940429688	-922.354919433594	-64.12545013427736	1161.184448242188	-990.2896118164065	-72.48941802978517	1160.733764648438	-844.7922363281252	-129.9408111572266	1099.456787109375	-919.9335937500002	-360.0058898925782	880.992858886719	-917.7508544921877	-18.67008209228516	952.527526855469	-911.020690917969	-6.763790607452394	1007.906372070313	-1090.177124023438	-91.6001663208008	950.3696289062502	-1279.475463867188	-100.1566696166992	902.624938964844	-1284.297485351563	-124.625114440918	925.0837402343752	-1333.836791992188	-168.4086303710938	879.476257324219	-1372.681030273438	-234.9616088867188	936.097595214844	-1361.176513671875	-376.1879577636719	780.1250000000002	-1153.992431640625	-358.2152709960938	712.0834350585939	-1195.9990234375	nan	nan	nan	8.421377182006838	995.9056396484377	-741.1076660156251	-96.90777587890628	922.6804199218752	-545.8652343750001	-116.3964309692383	877.205261230469	-555.3674926757814	-142.3065490722657	890.8177490234377	-502.5661621093751	-194.9026641845704	846.5168457031252	-477.453094482422	-258.5723571777344	910.0130615234377	-481.4102172851564	-410.7847595214845	756.9317626953126	-673.9591674804689	-376.7373352050782	687.9677734375001	-652.2750244140626	nan	nan	nan	nan	nan	nan	nan	nan	nan	-454.9518127441407	813.027526855469	-919.6192016601565	-478.209686279297	801.6152954101565	-950.8179931640627	-487.4759826660157	796.5706787109377	-896.6182250976565	-358.9723815917969	602.1307373046876	-1181.885498046875	-280.7463378906251	595.2508544921876	-1211.210815429688	-253.8579254150391	634.1125488281251	-1197.160400390625	-252.7745361328126	545.7379150390626	-1230.480224609375	-117.474853515625	486.4359130859376	-1264.244873046875	-72.40642547607423	448.2941894531251	-1147.174682617188	-148.2471466064453	273.6320190429688	-1204.37158203125	-217.7116851806641	257.7108764648438	-1262.702392578125	-185.4756164550782	239.4809570312501	-1236.718505859375	-224.5485076904297	171.555419921875	-1199.053955078125	-338.7429809570313	100.7066040039063	-1224.550537109375	-393.5450134277345	48.0046730041504	-1167.381103515625	-177.785385131836	58.31187057495119	-1198.38720703125	-186.1322937011719	58.27381896972658	-1239.389526367188	-291.9950866699219	98.10304260253909	-1148.89306640625	-284.9086303710938	545.5086059570314	-617.0825805664064	-217.8395385742188	559.6505126953126	-596.5823364257814	-199.7156982421876	586.8734130859376	-607.8459472656251	-165.1935119628907	496.4701538085939	-582.0133056640626	-131.342269897461	459.0607299804689	-567.3704223632814	-73.53545379638673	437.1218261718751	-681.0001220703126	-133.6768035888672	324.5266113281251	-577.9933471679689	-236.3533477783204	289.4592895507813	-571.2156982421876	-197.4706573486329	264.6313171386719	-581.5375976562501	-201.7722625732422	221.2153778076172	-620.7929687500001	-354.1455688476563	97.87583923339847	-615.3418579101564	-303.9172058105469	87.32115173339845	-691.7846069335939	-408.8202514648439	48.67590332031251	-681.5415039062501	-198.2326202392579	59.39288711547853	-594.2416992187501	-214.4302978515626	60.97462463378908	-560.4635009765626	-245.9116668701172	41.83008193969727	-519.3898925781251	
317	1.58	75.43890380859376	1269.365478515625	-922.2634277343752	-63.30132293701173	1158.3828125	-990.1824340820315	-71.41310119628908	1157.354858398438	-844.9976806640627	-129.1720886230469	1096.989990234375	-919.9147949218752	-359.2442016601563	879.1613769531252	-917.7744140625002	-18.21117401123047	950.048767089844	-911.053161621094	-5.57728672027588	1005.225708007813	-1090.008911132813	-90.29294586181642	947.6986083984377	-1279.462646484375	-98.23566436767581	899.688659667969	-1284.093872070313	-123.6856536865235	922.647399902344	-1333.89208984375	-166.9724731445313	877.2446899414065	-1372.389892578125	-233.908676147461	933.977478027344	-1361.28564453125	-375.7571105957032	778.7380371093752	-1154.059204101563	-358.4821166992188	710.8150024414064	-1196.061767578125	nan	nan	nan	9.25791645050049	993.0969238281252	-741.0241699218751	-96.10884857177737	920.089538574219	-545.7950439453126	-115.7445373535157	874.7255859375002	-555.1456298828126	-141.6533508300782	888.484069824219	-502.4078674316407	-194.3731536865235	844.3379516601565	-477.3905029296876	-257.9067687988282	908.0445556640627	-481.2402648925782	-410.5914611816407	755.5411376953126	-674.0263061523439	-376.6697387695313	686.5127563476564	-652.2518920898439	nan	nan	nan	nan	nan	nan	nan	nan	nan	-454.530731201172	811.3916625976565	-919.6938476562502	-477.8472595214845	799.7058105468752	-950.802917480469	-487.3447570800782	794.9605712890627	-896.6824951171877	-359.5247802734376	601.3938598632814	-1182.024780273438	-280.8225097656251	594.4293823242189	-1211.156616210938	-253.8573608398438	633.2879638671876	-1196.954223632813	-253.3822479248047	545.2439575195314	-1230.705200195313	-117.0834350585938	486.227508544922	-1264.43359375	-71.96900939941408	447.8047180175782	-1147.432495117188	-148.1457061767578	273.4199523925782	-1204.478515625	-217.7125549316407	257.6422119140626	-1262.690673828125	-185.274154663086	239.3600006103516	-1236.718017578125	-224.4937591552735	171.5830535888672	-1199.156616210938	-338.5898437500001	100.5737380981446	-1224.470092773438	-393.5460205078126	48.0033645629883	-1167.334106445313	-177.7256317138672	58.36165237426759	-1198.417236328125	-186.1303100585938	58.1970901489258	-1239.387084960938	-291.9871826171876	98.04771423339847	-1148.830200195313	-284.7492675781251	544.5302124023439	-617.1335449218751	-217.6825256347657	559.0402832031251	-596.7344360351564	-199.6243133544922	586.2939453125001	-608.1633300781251	-164.8157653808594	496.0233764648439	-582.0337524414064	-130.888168334961	458.736785888672	-567.4041748046876	-73.1202850341797	436.7249145507814	-681.0012817382814	-133.3164215087891	324.4325561523438	-578.0068969726564	-236.1287231445313	289.4581604003907	-571.3057250976564	-197.1744232177735	264.3901367187501	-581.6766967773439	-201.8775329589844	221.1422271728516	-621.0755615234376	-354.0875854492188	97.89418792724612	-615.4436645507814	-303.9080200195313	87.35424041748048	-691.9025878906251	-408.7498474121095	48.7512893676758	-681.6339111328126	-198.1730499267579	59.41437149047853	-594.3021850585939	-214.4169464111329	61.00718688964845	-560.4834594726564	-245.8569030761719	41.89651489257813	-519.4295043945314	
318	1.585	76.3738250732422	1266.76123046875	-922.3916015625002	-62.5292434692383	1155.689575195313	-990.2535400390627	-70.54864501953126	1154.781982421875	-844.9238891601565	-128.2406921386719	1094.694946289063	-919.8107910156252	-358.6615295410157	876.9003906250002	-917.8488769531252	-17.2574520111084	947.4660644531252	-910.8825683593752	-4.422358036041261	1002.363037109375	-1089.640014648438	-89.13919067382814	945.223571777344	-1279.357421875	-97.3847351074219	897.225036621094	-1284.069580078125	-122.4800338745117	920.184753417969	-1333.842651367188	-166.3673706054688	874.9003906250002	-1372.4697265625	-232.801498413086	931.618835449219	-1361.306640625	-375.2510986328126	777.075866699219	-1154.142333984375	-357.8696594238282	708.8807373046876	-1195.926147460938	nan	nan	nan	10.10441207885742	990.3008422851565	-740.8619384765626	-95.25886535644533	917.1102294921877	-545.6149291992189	-115.0896987915039	872.248229980469	-554.9199218750001	-140.7277069091797	886.099548339844	-502.053436279297	-193.7798156738282	842.169128417969	-477.1716613769532	-257.2357482910157	906.0003051757815	-481.0081176757814	-410.3688354492189	754.2752685546876	-674.0316162109376	-376.6130981445313	685.1812744140626	-652.3392944335939	nan	nan	nan	nan	nan	nan	nan	nan	nan	-453.9641113281251	809.292419433594	-919.696716308594	-477.189666748047	798.4885864257815	-950.7556762695315	-487.0160217285157	793.3013916015627	-896.720397949219	-359.8739624023438	600.7800292968751	-1182.266235351563	-281.4102478027344	593.6926879882814	-1211.463256835938	-253.7897644042969	632.7355957031251	-1196.759887695313	-253.2650909423829	544.4716186523439	-1230.76953125	-116.8555221557617	486.0893554687501	-1264.593872070313	-71.56558990478517	447.4234313964845	-1147.541381835938	-147.968490600586	273.2697143554688	-1204.60693359375	-217.6324310302735	257.5937194824219	-1262.7060546875	-184.8487243652344	239.061508178711	-1236.789428710938	-224.3759918212891	171.6236267089844	-1199.2255859375	-338.6796569824219	100.6327514648438	-1224.454833984375	-393.5113830566407	48.03811645507814	-1167.272338867188	-177.7125244140625	58.4132652282715	-1198.41845703125	-186.1632232666016	58.2028045654297	-1239.40771484375	-291.9208679199219	98.0202560424805	-1148.826293945313	-284.5158386230469	543.6682739257814	-617.2293701171876	-217.4580535888672	558.5684204101564	-596.8413696289064	-199.4607391357422	585.7811889648439	-608.3449096679689	-164.5906524658203	495.485321044922	-582.0370483398439	-130.1161193847657	458.6153259277345	-567.8607788085939	-72.0266571044922	436.1821594238282	-680.9370727539064	-132.9906463623047	324.1775817871094	-578.0935668945314	-235.8774566650391	289.4540710449219	-571.3568115234376	-196.9046630859376	264.1705627441407	-581.8186035156251	-201.6579742431641	221.0989074707032	-621.1268920898439	-353.9925537109376	97.94733428955081	-615.5266723632814	-303.8188476562501	87.3352508544922	-691.9561767578126	-408.7493591308595	48.80920791625978	-681.6542968750001	-198.1460266113282	59.42413711547853	-594.2918701171876	-214.4063262939454	61.05484771728517	-560.4916992187501	-245.868637084961	41.88290023803712	-519.4397583007814	
319	1.59	76.98815917968751	1264.570434570313	-922.4791259765627	-61.8326988220215	1152.922485351563	-990.1967773437502	-69.85279846191408	1153.036499023438	-844.7149658203127	-127.4257278442383	1092.451904296875	-919.738708496094	-357.9985046386719	875.3328857421877	-917.9211425781252	-16.43637847900391	944.8943481445315	-910.840026855469	-3.505005359649659	999.9564208984377	-1089.6513671875	-88.29970550537111	942.754577636719	-1279.283569335938	-96.38357543945315	894.943542480469	-1283.907104492188	-121.4528198242188	917.6353149414065	-1333.84619140625	-165.4398040771485	872.4854736328127	-1372.3330078125	-231.5696716308594	929.5529785156252	-1361.410400390625	-374.5813903808594	775.8330688476565	-1154.152099609375	-357.7225036621094	707.5717163085939	-1195.881469726563	nan	nan	nan	10.86430168151856	987.8838500976565	-740.7899780273439	-94.55736541748048	914.9321289062502	-545.4505615234376	-114.4114608764649	869.8959960937502	-554.7259521484376	-140.0411682128907	883.6263427734377	-501.8645019531251	-193.3440246582032	839.8385009765627	-476.9844970703126	-256.4734191894532	904.061706542969	-480.8429260253907	-410.1585388183595	753.0452270507814	-674.1107788085939	-376.5030517578126	683.8883666992189	-652.3900146484376	nan	nan	nan	nan	nan	nan	nan	nan	nan	-453.518035888672	807.901794433594	-919.7890625000002	-476.7150878906251	796.6657714843752	-950.7258911132815	-486.2547302246095	791.4810180664065	-896.8422851562502	-359.2711181640626	599.4185791015626	-1182.027587890625	-281.3634338378907	593.0770263671876	-1211.552368164063	-253.9307403564454	631.9765625000001	-1196.668334960938	-253.1117248535157	544.0351562500001	-1230.865356445313	-116.4776458740235	485.8420715332032	-1264.7919921875	-71.13799285888673	447.0567932128907	-1147.658081054688	-147.785385131836	273.2267150878907	-1204.78173828125	-217.4354858398438	257.4666137695313	-1262.797119140625	-184.7398681640625	238.9434967041016	-1236.883544921875	-224.3067169189454	171.582992553711	-1199.3310546875	-338.7122802734376	100.677001953125	-1224.398559570313	-393.496307373047	48.06529617309572	-1167.263061523438	-177.7901458740235	58.25232315063478	-1198.460327148438	-186.1067047119141	58.1680145263672	-1239.385986328125	-291.8712158203126	98.02432250976565	-1148.8505859375	-284.2835998535157	542.9253540039064	-617.1981201171876	-217.2801818847657	558.0029296875001	-597.0169677734376	-199.4320068359376	585.0970458984376	-608.5120239257814	-164.2434844970703	495.1316833496095	-582.1398925781251	-129.6356811523438	458.3631896972657	-567.8469238281251	-71.4373245239258	435.9947509765626	-680.9766845703126	-132.6747131347657	323.9198913574219	-578.1597900390626	-235.6558227539063	289.3293457031251	-571.4239501953126	-196.6666564941407	263.9635620117188	-581.8143920898439	-201.1971435546876	220.778793334961	-620.9824829101564	-353.9173583984376	98.00724792480472	-615.6234130859376	-303.6910705566407	87.33226013183595	-691.9378051757814	-408.6911621093751	48.84755706787111	-681.7597045898439	-198.0888671875001	59.41493988037111	-594.3002929687501	-214.6934661865235	60.80563354492189	-560.3312377929689	-245.8817596435547	41.96752929687501	-519.4554443359376	
